<?xml version="1.0" encoding="utf-8"?>
<!-- Generator: Adobe Illustrator 19.1.0, SVG Export Plug-In . SVG Version: 6.00 Build 0)  -->
<svg version="1.1" id="Capa_1" xmlns="http://www.w3.org/2000/svg" xmlns:xlink="http://www.w3.org/1999/xlink" x="0px" y="0px"
	 viewBox="572 -50.5 898 791" style="enable-background:new 572 -50.5 898 791;" xml:space="preserve">
<style type="text/css">
	.st0{fill:#897166;}
	.st1{fill:#F7EEDF;}
	.st2{fill:#B9BCB0;}
	.st3{fill:#2D2D2D;}
</style>
<g>
	<rect x="823.7" y="290.5" class="st0" width="416.3" height="352.5"/>
	<g>
		<path class="st1" d="M1273.4,46.3c28.9,43.3,49.3,96.4,60.8,158c5.2,28.2,10.5,56.8,15.1,85.4c153,14.4,147.3-177.5,56.7-269.3
			c-60.2-61-140.8-56.4-195.5-43.1C1234.5-3.4,1255.6,19.6,1273.4,46.3z"/>
		<path class="st1" d="M692.7,289.8c4.7-28.6,9.9-57.3,15.1-85.4c11.5-61.6,31.9-114.8,60.8-158c17.8-26.7,38.9-49.8,62.9-68.9
			c-54.8-13.4-135.3-17.9-195.5,43C545.4,112.2,539.7,304.1,692.7,289.8z"/>
		<path class="st1" d="M729.2,283.1c-41.9,249.6-39.9,457.4,291.8,457.4s333.7-207.7,291.7-457.4c-4-23.8-8.4-47.9-12.9-72.3
			c-22.3-119.7-76.3-184.6-131-220c-58-37.5-116.7-41.3-138.7-41.3c-6.1,0-12.2,0-18.2,0c-22,0-80.7,3.7-138.7,41.2
			C818.6,26,764.5,91.1,742.2,210.8C737.6,235.2,733.2,259.3,729.2,283.1z M1171.3,158.8c21.8,0,39.4,17.7,39.4,39.4
			c0,21.8-17.7,39.4-39.4,39.4s-39.4-17.7-39.4-39.4C1131.9,176.4,1149.5,158.8,1171.3,158.8z M936.2,329.5h169.6
			c17,0,30,14.7,27.9,31.6c-10.9,88.1-66.7,121.2-95.7,132.7v24.8c0,37,30.5,67.1,67.5,67.1s67.5-30.1,67.5-67.1v-20.2
			c0-9.7,7.8-17.5,17.5-17.5s17.5,7.8,17.5,17.5v20.2c0,56.3-45.9,102.1-102.2,102.1c-35.2,0-66.3-17.9-84.7-45
			c-18.4,27.1-49.6,45-84.8,45C880,620.7,834,574.9,834,518.6v-20.2c0-9.7,7.8-17.5,17.5-17.5s17.5,7.8,17.5,17.5v20.2
			c0,37,30,67.1,67,67.1s67-30.1,67-67.1v-24.8c-28-11.5-84.3-44.6-95.2-132.7C905.7,344.2,919.2,329.5,936.2,329.5z M871.3,158.8
			c21.8,0,39.4,17.7,39.4,39.4c0,21.8-17.7,39.4-39.4,39.4c-21.8,0-39.4-17.7-39.4-39.4C831.9,176.4,849.5,158.8,871.3,158.8z"/>
	</g>
</g>
<path class="st2" d="M633.4,95.7v149c0,100.5,81.5,182,182,182l0,0c34.3,0,66.8-15.4,88.5-41.9c0.1-0.1,0.2-0.3,0.3-0.4l59.7-73.7
	l8.2-10.1c10.5-13,25.7-19.5,40.8-19.5c15.2,0,30.3,6.5,40.8,19.5l8.2,10.1l59.7,73.7c0.1,0.1,0.2,0.3,0.3,0.4
	c21.7,26.5,54.2,41.9,88.5,41.9l0,0c40.1,0,77.2-13,107.3-35c22.1-16.1,40.4-37.1,53.3-61.4c9.2-17.2,15.6-36,18.9-55.8
	c1.6-9.7,2.4-19.6,2.4-29.7v-149c0-16.5-8.5-31.1-21.3-39.6c-7.5-4.9-16.4-7.8-26-7.8h-118.1H799.1H680.8
	C654.6,48.4,633.4,69.6,633.4,95.7"/>
<path class="st3" d="M976.8,279l-7.1,8.7l-51.5,63.6c-0.1,0-0.2,0.2-0.3,0.3c-18.7,22.8-46.7,36.1-76.3,36.1l0,0
	c-86.7,0-157-70.3-157-157c0,0,0-128.5,0-128.5c0-22.5,18.2-40.8,40.9-40.8h102h369h102.1c8.3,0,15.9,2.5,22.4,6.7
	c11.1,7.4,18.4,20,18.4,34.2v128.5c0,8.7-0.7,17.2-2.1,25.6c-2.8,17-8.4,33.3-16.3,48.1c-11.2,21-26.9,39.1-46,53
	c-26,19-58,30.2-92.6,30.2l0,0c-29.6,0-57.6-13.2-76.3-36.1c-0.1,0-0.2-0.2-0.3-0.3l-51.5-63.6l-7.1-8.7
	c-9.1-11.2-22.1-16.8-35.2-16.8C999,262.2,985.9,267.8,976.8,279z"/>
<rect x="985.4" y="61.4" class="st2" width="54.2" height="213.6"/>
</svg>
